<?xml version="1.0" standalone="no"?>
<!DOCTYPE svg PUBLIC "-//W3C//DTD SVG 20010904//EN"
 "http://www.w3.org/TR/2001/REC-SVG-20010904/DTD/svg10.dtd">
<svg version="1.0" xmlns="http://www.w3.org/2000/svg"
 width="300.000000pt" height="300.000000pt" viewBox="0 0 300.000000 300.000000"
 preserveAspectRatio="xMidYMid meet">
<metadata>
Created by potrace 1.14, written by Peter Selinger 2001-2017
</metadata>
<g transform="translate(0.000000,300.000000) scale(0.100000,-0.100000)"
fill="#000000" stroke="none">
<path d="M910 2645 l0 -45 135 0 136 0 -3 -1002 c-3 -1099 0 -1040 -62 -1097
-21 -20 -43 -26 -116 -35 l-90 -10 0 -43 0 -43 400 0 400 0 0 23 c0 53 -19 62
-145 67 l-116 5 1 432 c0 238 5 454 10 481 23 122 81 220 177 298 77 63 150
87 248 82 158 -9 256 -94 300 -265 12 -46 15 -137 15 -483 0 -422 0 -426 -22
-470 -28 -56 -51 -67 -151 -76 l-78 -7 3 -41 3 -41 393 -3 c426 -2 410 -5 381
51 -19 35 -27 37 -146 37 l-113 0 0 495 c0 549 -4 591 -63 715 -41 87 -125
171 -214 213 -60 28 -80 32 -173 35 -76 3 -123 -1 -169 -13 -165 -43 -304
-153 -381 -302 -12 -24 -23 -43 -24 -43 0 0 0 254 2 565 l2 565 -270 0 -270 0
0 -45z"/>
<path d="M1811 2663 c-26 -9 -65 -36 -92 -63 -64 -64 -89 -143 -89 -280 0
-178 56 -289 172 -341 43 -19 70 -23 143 -23 79 0 98 3 148 27 68 34 119 91
149 166 32 83 31 262 -2 345 -29 77 -98 147 -165 169 -62 22 -203 21 -264 0z
m227 -89 c88 -36 126 -113 126 -254 0 -110 -22 -177 -74 -224 -44 -40 -84 -50
-174 -44 -121 7 -176 81 -184 244 -9 198 59 290 216 293 29 1 69 -6 90 -15z"/>
<path d="M320 2285 l0 -75 75 0 75 0 0 75 0 75 -75 0 -75 0 0 -75z"/>
<path d="M927 2353 c-4 -3 -7 -37 -7 -75 l0 -68 80 0 80 0 0 75 0 75 -73 0
c-41 0 -77 -3 -80 -7z"/>
<path d="M320 1985 l0 -75 75 0 75 0 0 75 0 75 -75 0 -75 0 0 -75z"/>
<path d="M927 2053 c-4 -3 -7 -37 -7 -75 l0 -68 80 0 80 0 0 75 0 75 -73 0
c-41 0 -77 -3 -80 -7z"/>
<path d="M624 1747 c-3 -8 -4 -43 -2 -78 l3 -64 75 0 75 0 0 75 0 75 -73 3
c-55 2 -74 -1 -78 -11z"/>
<path d="M924 1747 c-3 -8 -4 -43 -2 -78 l3 -64 75 0 75 0 0 75 0 75 -73 3
c-55 2 -74 -1 -78 -11z"/>
<path d="M320 1375 l0 -75 75 0 75 0 0 75 0 75 -75 0 -75 0 0 -75z"/>
<path d="M922 1378 l3 -73 78 -3 77 -3 0 76 0 75 -80 0 -81 0 3 -72z"/>
<path d="M922 1078 l3 -73 78 -3 77 -3 0 76 0 75 -80 0 -81 0 3 -72z"/>
<path d="M927 843 c-4 -3 -7 -37 -7 -75 l0 -68 80 0 80 0 0 75 0 75 -73 0
c-41 0 -77 -3 -80 -7z"/>
</g>
</svg>
